<svg width="803" height="509" viewBox="0 0 803 509" fill="none" xmlns="http://www.w3.org/2000/svg">
<path d="M493.951 257.408L625.868 376.169C560.299 449.002 448.083 454.873 375.228 389.283C302.372 323.694 296.465 211.48 362.035 138.647C400.039 96.4328 455.962 74.9695 512.462 80.9124L493.951 257.408Z" fill="url(#paint0_linear_118_606)" stroke="url(#paint1_linear_118_606)"/>
<path d="M510.893 247.692L528.552 80.724C620.737 90.3386 687.561 172.887 677.808 265.101C674.834 293.225 664.805 320.153 648.654 343.386L510.893 247.692Z" fill="url(#paint2_linear_118_606)" stroke="url(#paint3_linear_118_606)"/>
<path d="M504.829 257.899L644.909 352.246C641.499 357.62 637.724 362.74 633.605 367.576L504.829 257.899Z" fill="url(#paint4_linear_118_606)" stroke="url(#paint5_linear_118_606)"/>
<path d="M651.5 156.522L684.5 120.522H783.5" stroke="white"/>
<path d="M322 210.522L298.909 174.522H81.6446H1.00136e-05" stroke="white"/>
<path d="M642 358.522L674.952 393.522H802.5" stroke="white"/>
<path d="M387.6 245.962L379.88 257.562C377.72 260.762 376.96 262.962 376.96 265.842C376.96 271.722 381.36 276.042 387.32 276.042C393.24 276.042 397.44 271.642 397.44 265.442C397.44 260.002 394 256.082 389.28 256.082C388.32 256.082 387.8 256.162 386.88 256.482L393.96 245.962H387.6ZM387.08 260.722C390.08 260.722 392.12 262.882 392.12 265.962C392.12 269.042 390.16 271.162 387.36 271.162C384.36 271.162 382.28 269.002 382.28 265.962C382.28 262.922 384.28 260.722 387.08 260.722ZM400.583 261.402L405.303 262.682C406.623 261.042 407.743 260.442 409.423 260.442C412.183 260.442 414.223 262.722 414.223 265.722C414.223 268.922 412.223 271.162 409.343 271.162C406.783 271.162 405.103 269.562 404.543 266.682H399.223C399.503 272.002 403.983 276.042 409.503 276.042C415.263 276.042 419.543 271.602 419.543 265.642C419.543 259.842 415.583 255.562 410.183 255.562C408.823 255.562 407.903 255.762 406.383 256.402L407.343 250.962H416.703V245.962H403.343L400.583 261.402ZM441.966 245.962L429.766 275.522H433.846L446.086 245.962H441.966ZM447.046 261.602C442.966 261.602 439.766 264.762 439.766 268.842C439.766 272.802 443.006 276.042 447.006 276.042C451.006 276.042 454.246 272.802 454.246 268.802C454.246 264.882 450.966 261.602 447.046 261.602ZM446.966 265.842C448.646 265.842 449.966 267.162 449.966 268.802C449.966 270.442 448.646 271.762 447.006 271.762C445.406 271.762 444.086 270.442 444.086 268.802C444.086 267.162 445.366 265.842 446.966 265.842ZM428.966 245.442C424.886 245.442 421.686 248.602 421.686 252.682C421.686 256.642 424.926 259.882 428.926 259.882C432.926 259.882 436.166 256.642 436.166 252.642C436.166 248.722 432.886 245.442 428.966 245.442ZM428.886 249.682C430.566 249.682 431.886 251.002 431.886 252.642C431.886 254.282 430.566 255.602 428.926 255.602C427.326 255.602 426.006 254.282 426.006 252.642C426.006 251.002 427.286 249.682 428.886 249.682Z" fill="white"/>
<path d="M561 193.282H561.88C565.44 193.282 567.68 195.242 567.68 198.242C567.68 201.082 565.72 203.162 563.04 203.162C560.44 203.162 558.6 201.362 558.24 198.562H552.88C553.2 204.122 557.4 208.042 563.08 208.042C568.8 208.042 573 203.842 573 198.122C573 194.402 571.48 191.882 568.4 190.482C570.12 189.242 570.88 187.682 570.88 185.402C570.88 180.842 567.48 177.442 562.92 177.442C560.68 177.442 558.6 178.282 557.12 179.842C555.8 181.202 555.28 182.522 555.08 185.002H560.48C560.72 183.162 561.48 182.322 562.96 182.322C564.48 182.322 565.56 183.482 565.56 185.122C565.56 186.362 565 187.242 563.92 187.722C563.24 188.002 562.52 188.122 561 188.162V193.282ZM583.383 193.282H584.263C587.823 193.282 590.063 195.242 590.063 198.242C590.063 201.082 588.103 203.162 585.423 203.162C582.823 203.162 580.983 201.362 580.623 198.562H575.263C575.583 204.122 579.783 208.042 585.463 208.042C591.183 208.042 595.383 203.842 595.383 198.122C595.383 194.402 593.863 191.882 590.783 190.482C592.503 189.242 593.263 187.682 593.263 185.402C593.263 180.842 589.863 177.442 585.303 177.442C583.063 177.442 580.983 178.282 579.503 179.842C578.183 181.202 577.663 182.522 577.463 185.002H582.863C583.103 183.162 583.863 182.322 585.343 182.322C586.863 182.322 587.943 183.482 587.943 185.122C587.943 186.362 587.383 187.242 586.303 187.722C585.623 188.002 584.903 188.122 583.383 188.162V193.282ZM617.966 177.962L605.766 207.522H609.846L622.086 177.962H617.966ZM623.046 193.602C618.966 193.602 615.766 196.762 615.766 200.842C615.766 204.802 619.006 208.042 623.006 208.042C627.006 208.042 630.246 204.802 630.246 200.802C630.246 196.882 626.966 193.602 623.046 193.602ZM622.966 197.842C624.646 197.842 625.966 199.162 625.966 200.802C625.966 202.442 624.646 203.762 623.006 203.762C621.406 203.762 620.086 202.442 620.086 200.802C620.086 199.162 621.366 197.842 622.966 197.842ZM604.966 177.442C600.886 177.442 597.686 180.602 597.686 184.682C597.686 188.642 600.926 191.882 604.926 191.882C608.926 191.882 612.166 188.642 612.166 184.642C612.166 180.722 608.886 177.442 604.966 177.442ZM604.886 181.682C606.566 181.682 607.886 183.002 607.886 184.642C607.886 186.282 606.566 187.602 604.926 187.602C603.326 187.602 602.006 186.282 602.006 184.642C602.006 183.002 603.286 181.682 604.886 181.682Z" fill="white"/>
<path d="M625.23 408.522H639.57V404.772H630.84L635.37 400.662C638.61 397.722 639.66 395.892 639.66 393.162C639.66 389.052 636.57 385.962 632.43 385.962C629.91 385.962 627.63 387.132 626.34 389.052C625.44 390.402 625.08 391.782 625.08 394.002H629.01C629.01 391.362 630.39 389.622 632.46 389.622C634.29 389.622 635.67 391.122 635.67 393.102C635.67 394.542 634.95 395.832 633.12 397.542L625.23 405.012V408.522ZM656.687 386.352L647.537 408.522H650.597L659.777 386.352H656.687ZM660.497 398.082C657.437 398.082 655.037 400.452 655.037 403.512C655.037 406.482 657.467 408.912 660.467 408.912C663.467 408.912 665.897 406.482 665.897 403.482C665.897 400.542 663.437 398.082 660.497 398.082ZM660.437 401.262C661.697 401.262 662.687 402.252 662.687 403.482C662.687 404.712 661.697 405.702 660.467 405.702C659.267 405.702 658.277 404.712 658.277 403.482C658.277 402.252 659.237 401.262 660.437 401.262ZM646.937 385.962C643.877 385.962 641.477 388.332 641.477 391.392C641.477 394.362 643.907 396.792 646.907 396.792C649.907 396.792 652.337 394.362 652.337 391.362C652.337 388.422 649.877 385.962 646.937 385.962ZM646.877 389.142C648.137 389.142 649.127 390.132 649.127 391.362C649.127 392.592 648.137 393.582 646.907 393.582C645.707 393.582 644.717 392.592 644.717 391.362C644.717 390.132 645.677 389.142 646.877 389.142Z" fill="white"/>
<path d="M2.016 153.522H3.934V145.01H5.852V143.176H0.098V145.01H2.016V153.522ZM9.93672 145.584C7.61272 145.584 5.77872 147.39 5.77872 149.658C5.77872 151.884 7.62672 153.704 9.90872 153.704C12.1767 153.704 14.0247 151.884 14.0247 149.658C14.0247 147.418 12.1907 145.584 9.93672 145.584ZM9.86672 147.292C11.1407 147.292 12.1487 148.328 12.1487 149.658C12.1487 150.946 11.1407 151.996 9.89472 151.996C8.66272 151.996 7.65472 150.946 7.65472 149.644C7.65472 148.356 8.66272 147.292 9.86672 147.292ZM15.3791 153.522H17.2411V147.46H18.3611V145.766H17.2411V143.176H15.3791V145.766H14.4691V147.46H15.3791V153.522ZM27.0664 145.766H25.3584V146.802C24.7144 145.948 23.9444 145.584 22.8244 145.584C20.5284 145.584 18.8764 147.306 18.8764 149.672C18.8764 152.01 20.5144 153.704 22.7824 153.704C23.8744 153.704 24.6164 153.368 25.3584 152.514V153.522H27.0664V145.766ZM22.9924 147.292C24.3504 147.292 25.3024 148.272 25.3024 149.672C25.3024 151.058 24.3924 151.996 23.0484 151.996C21.6904 151.996 20.7524 151.072 20.7524 149.714C20.7524 148.314 21.6904 147.292 22.9924 147.292ZM28.5783 153.522H30.4403V143.176H28.5783V153.522ZM35.879 156.112H37.741V152.794C38.455 153.424 39.169 153.704 40.121 153.704C42.361 153.704 43.999 151.968 43.999 149.616C43.999 147.278 42.375 145.584 40.135 145.584C39.085 145.584 38.189 145.962 37.587 146.676V145.766H35.879V156.112ZM39.855 147.292C41.171 147.292 42.123 148.3 42.123 149.658C42.123 150.974 41.157 151.996 39.911 151.996C38.623 151.996 37.629 150.988 37.629 149.672C37.629 148.314 38.595 147.292 39.855 147.292ZM45.1486 153.522H47.0106V149.21C47.0106 148.006 47.5566 147.404 48.6766 147.376V145.584H48.5366C47.7386 145.584 47.3466 145.794 46.8566 146.522V145.766H45.1486V153.522ZM53.2492 145.584C50.9252 145.584 49.0912 147.39 49.0912 149.658C49.0912 151.884 50.9392 153.704 53.2212 153.704C55.4892 153.704 57.3372 151.884 57.3372 149.658C57.3372 147.418 55.5032 145.584 53.2492 145.584ZM53.1792 147.292C54.4532 147.292 55.4612 148.328 55.4612 149.658C55.4612 150.946 54.4532 151.996 53.2072 151.996C51.9752 151.996 50.9672 150.946 50.9672 149.644C50.9672 148.356 51.9752 147.292 53.1792 147.292ZM58.6747 145.766V152.962C58.6747 154.054 58.6047 154.18 57.9047 154.306V156.112C58.6187 156.112 59.2487 155.874 59.7107 155.44C60.2847 154.908 60.5367 154.166 60.5367 153.004V145.766H58.6747ZM58.6747 144.926H60.5367V143.176H58.6747V144.926ZM69.705 150.47C69.761 150.204 69.775 150.036 69.775 149.756C69.775 147.348 68.081 145.584 65.771 145.584C63.489 145.584 61.683 147.39 61.683 149.672C61.683 151.94 63.517 153.704 65.883 153.704C67.157 153.704 68.151 153.256 68.963 152.304C69.257 151.94 69.453 151.618 69.579 151.226H67.549C67.073 151.786 66.611 151.996 65.841 151.996C64.735 151.996 63.923 151.408 63.699 150.47H69.705ZM63.643 148.832C63.937 147.824 64.693 147.292 65.799 147.292C66.947 147.292 67.703 147.838 67.941 148.832H63.643ZM76.4501 150.974C75.9881 151.688 75.4561 151.996 74.6861 151.996C73.3981 151.996 72.4321 150.988 72.4321 149.63C72.4321 148.258 73.3421 147.292 74.6441 147.292C75.4841 147.292 76.0721 147.628 76.4501 148.356H78.5501C78.2841 147.6 78.0461 147.208 77.5561 146.732C76.8001 145.99 75.7501 145.584 74.6441 145.584C72.3481 145.584 70.5561 147.362 70.5561 149.644C70.5561 151.898 72.4041 153.704 74.7001 153.704C76.5201 153.704 77.9061 152.71 78.5501 150.974H76.4501ZM80.0061 153.522H81.8681V147.46H82.9881V145.766H81.8681V143.176H80.0061V145.766H79.0961V147.46H80.0061V153.522ZM87.8322 153.522H89.6942V143.176H87.8322V153.522ZM91.2091 153.522H93.0711V145.766H91.2091V153.522ZM91.2091 144.926H93.0711V143.176H91.2091V144.926ZM100.648 145.766V146.76C100.032 145.948 99.2621 145.584 98.1281 145.584C95.9441 145.584 94.2221 147.362 94.2221 149.616C94.2221 151.926 95.9301 153.704 98.1561 153.704C99.1081 153.704 99.8781 153.396 100.494 152.78V156.112H102.356V145.766H100.648ZM98.3381 147.292C99.6681 147.292 100.606 148.286 100.606 149.672C100.606 151.016 99.6541 151.996 98.3801 151.996C97.0641 151.996 96.0981 151.002 96.0981 149.658C96.0981 148.328 97.0781 147.292 98.3381 147.292ZM110.743 145.766H108.881V149.42C108.881 150.414 108.811 150.904 108.615 151.254C108.349 151.73 107.817 151.996 107.173 151.996C106.697 151.996 106.361 151.842 106.095 151.534C105.815 151.184 105.703 150.638 105.703 149.56V145.766H103.841V149.924C103.841 151.198 103.981 151.856 104.387 152.486C104.891 153.27 105.745 153.704 106.795 153.704C107.733 153.704 108.307 153.466 109.021 152.78V153.522H110.743V145.766ZM112.25 153.522H114.112V145.766H112.25V153.522ZM112.25 144.926H114.112V143.176H112.25V144.926ZM123.425 143.176H121.563V146.452C121.017 145.85 120.121 145.486 119.141 145.486C116.971 145.486 115.263 147.306 115.263 149.63C115.263 151.94 116.957 153.704 119.155 153.704C120.205 153.704 120.961 153.354 121.717 152.514V153.522H123.425V143.176ZM119.379 147.194C120.723 147.194 121.703 148.216 121.703 149.616C121.703 150.946 120.709 151.996 119.449 151.996C118.161 151.996 117.139 150.932 117.139 149.574C117.139 148.23 118.119 147.194 119.379 147.194ZM124.938 153.522H126.8V145.766H124.938V153.522ZM124.938 144.926H126.8V143.176H124.938V144.926ZM128.651 153.522H130.513V147.46H131.633V145.766H130.513V143.176H128.651V145.766H127.741V147.46H128.651V153.522ZM133.225 156.112H135.227L139.707 145.766H137.565L135.689 150.792L133.967 145.766H131.839L134.681 152.794L133.225 156.112ZM144.434 156.112H146.296V152.794C147.01 153.424 147.724 153.704 148.676 153.704C150.916 153.704 152.554 151.968 152.554 149.616C152.554 147.278 150.93 145.584 148.69 145.584C147.64 145.584 146.744 145.962 146.142 146.676V145.766H144.434V156.112ZM148.41 147.292C149.726 147.292 150.678 148.3 150.678 149.658C150.678 150.974 149.712 151.996 148.466 151.996C147.178 151.996 146.184 150.988 146.184 149.672C146.184 148.314 147.15 147.292 148.41 147.292ZM157.497 145.584C155.173 145.584 153.339 147.39 153.339 149.658C153.339 151.884 155.187 153.704 157.469 153.704C159.737 153.704 161.585 151.884 161.585 149.658C161.585 147.418 159.751 145.584 157.497 145.584ZM157.427 147.292C158.701 147.292 159.709 148.328 159.709 149.658C159.709 150.946 158.701 151.996 157.455 151.996C156.223 151.996 155.215 150.946 155.215 149.644C155.215 148.356 156.223 147.292 157.427 147.292ZM166.521 145.584C164.197 145.584 162.363 147.39 162.363 149.658C162.363 151.884 164.211 153.704 166.493 153.704C168.761 153.704 170.609 151.884 170.609 149.658C170.609 147.418 168.775 145.584 166.521 145.584ZM166.451 147.292C167.725 147.292 168.733 148.328 168.733 149.658C168.733 150.946 167.725 151.996 166.479 151.996C165.247 151.996 164.239 150.946 164.239 149.644C164.239 148.356 165.247 147.292 166.451 147.292ZM171.75 153.522H173.612V143.176H171.75V153.522ZM182.845 145.584C180.521 145.584 178.687 147.39 178.687 149.658C178.687 151.884 180.535 153.704 182.817 153.704C185.085 153.704 186.933 151.884 186.933 149.658C186.933 147.418 185.099 145.584 182.845 145.584ZM182.775 147.292C184.049 147.292 185.057 148.328 185.057 149.658C185.057 150.946 184.049 151.996 182.803 151.996C181.571 151.996 180.563 150.946 180.563 149.644C180.563 148.356 181.571 147.292 182.775 147.292ZM188.074 153.522H189.936V149.868C189.936 148.86 190.006 148.412 190.23 148.048C190.51 147.558 191 147.292 191.616 147.292C192.092 147.292 192.456 147.446 192.708 147.754C192.988 148.09 193.1 148.664 193.1 149.728V153.522H194.962V149.364C194.962 148.02 194.836 147.376 194.458 146.774C193.954 146.004 193.086 145.584 191.98 145.584C191.084 145.584 190.482 145.836 189.796 146.508V145.766H188.074V153.522ZM200.603 153.522H202.521V149.588H203.137C204.551 149.588 205.209 149.476 205.769 149.168C206.665 148.664 207.211 147.6 207.211 146.368C207.211 145.206 206.735 144.254 205.895 143.708C205.279 143.316 204.579 143.176 203.165 143.176H200.603V153.522ZM202.521 147.754V145.01H203.165C203.795 145.01 204.089 145.038 204.383 145.108C204.943 145.262 205.279 145.752 205.279 146.41C205.279 146.998 204.943 147.46 204.397 147.614C204.089 147.712 203.641 147.754 203.081 147.754H202.521ZM215.916 145.766H214.208V146.802C213.564 145.948 212.794 145.584 211.674 145.584C209.378 145.584 207.726 147.306 207.726 149.672C207.726 152.01 209.364 153.704 211.632 153.704C212.724 153.704 213.466 153.368 214.208 152.514V153.522H215.916V145.766ZM211.842 147.292C213.2 147.292 214.152 148.272 214.152 149.672C214.152 151.058 213.242 151.996 211.898 151.996C210.54 151.996 209.602 151.072 209.602 149.714C209.602 148.314 210.54 147.292 211.842 147.292ZM217.428 153.522H219.29V149.868C219.29 148.86 219.36 148.412 219.584 148.048C219.864 147.558 220.354 147.292 220.97 147.292C221.446 147.292 221.81 147.446 222.062 147.754C222.342 148.09 222.454 148.664 222.454 149.728V153.522H224.316V149.364C224.316 148.02 224.19 147.376 223.812 146.774C223.308 146.004 222.44 145.584 221.334 145.584C220.438 145.584 219.836 145.836 219.15 146.508V145.766H217.428V153.522ZM231.325 150.974C230.863 151.688 230.331 151.996 229.561 151.996C228.273 151.996 227.307 150.988 227.307 149.63C227.307 148.258 228.217 147.292 229.519 147.292C230.359 147.292 230.947 147.628 231.325 148.356H233.425C233.159 147.6 232.921 147.208 232.431 146.732C231.675 145.99 230.625 145.584 229.519 145.584C227.223 145.584 225.431 147.362 225.431 149.644C225.431 151.898 227.279 153.704 229.575 153.704C231.395 153.704 232.781 152.71 233.425 150.974H231.325ZM242.371 145.766H240.663V146.802C240.019 145.948 239.249 145.584 238.129 145.584C235.833 145.584 234.181 147.306 234.181 149.672C234.181 152.01 235.819 153.704 238.087 153.704C239.179 153.704 239.921 153.368 240.663 152.514V153.522H242.371V145.766ZM238.297 147.292C239.655 147.292 240.607 148.272 240.607 149.672C240.607 151.058 239.697 151.996 238.353 151.996C236.995 151.996 236.057 151.072 236.057 149.714C236.057 148.314 236.995 147.292 238.297 147.292ZM243.883 153.522H245.745V149.896L248.391 153.522H250.897L247.677 149.56L250.449 145.766H248.223L245.745 149.42V143.176H243.883V153.522ZM258.773 150.47C258.829 150.204 258.843 150.036 258.843 149.756C258.843 147.348 257.149 145.584 254.839 145.584C252.557 145.584 250.751 147.39 250.751 149.672C250.751 151.94 252.585 153.704 254.951 153.704C256.225 153.704 257.219 153.256 258.031 152.304C258.325 151.94 258.521 151.618 258.647 151.226H256.617C256.141 151.786 255.679 151.996 254.909 151.996C253.803 151.996 252.991 151.408 252.767 150.47H258.773ZM252.711 148.832C253.005 147.824 253.761 147.292 254.867 147.292C256.015 147.292 256.771 147.838 257.009 148.832H252.711ZM259.498 150.568C259.554 151.352 259.722 151.842 260.128 152.388C260.73 153.214 261.766 153.704 262.9 153.704C264.762 153.704 266.204 152.262 266.204 150.386C266.204 149.518 265.896 148.79 265.28 148.23C264.874 147.852 264.552 147.684 263.53 147.292C262.578 146.942 262.536 146.928 262.41 146.844C262.018 146.606 261.808 146.284 261.808 145.892C261.808 145.276 262.242 144.842 262.872 144.842C263.516 144.842 263.908 145.234 263.964 145.934H265.952C265.91 145.178 265.742 144.674 265.364 144.17C264.804 143.428 263.88 142.994 262.886 142.994C261.206 142.994 259.876 144.296 259.876 145.934C259.876 147.236 260.632 148.23 262.032 148.748C263.404 149.252 263.474 149.294 263.782 149.518C264.132 149.784 264.3 150.148 264.3 150.596C264.3 151.338 263.726 151.856 262.9 151.856C262.046 151.856 261.584 151.436 261.5 150.568H259.498ZM269.388 153.522H270.536L272.034 148.496L273.504 153.522H274.666L277.466 145.766H275.478L274.064 150.498L272.79 145.766H271.306L270.004 150.498L268.618 145.766H266.616L269.388 153.522ZM285.738 145.766H284.03V146.802C283.386 145.948 282.616 145.584 281.496 145.584C279.2 145.584 277.548 147.306 277.548 149.672C277.548 152.01 279.186 153.704 281.454 153.704C282.546 153.704 283.288 153.368 284.03 152.514V153.522H285.738V145.766ZM281.664 147.292C283.022 147.292 283.974 148.272 283.974 149.672C283.974 151.058 283.064 151.996 281.72 151.996C280.362 151.996 279.424 151.072 279.424 149.714C279.424 148.314 280.362 147.292 281.664 147.292ZM287.25 156.112H289.112V152.794C289.826 153.424 290.54 153.704 291.492 153.704C293.732 153.704 295.37 151.968 295.37 149.616C295.37 147.278 293.746 145.584 291.506 145.584C290.456 145.584 289.56 145.962 288.958 146.676V145.766H287.25V156.112ZM291.226 147.292C292.542 147.292 293.494 148.3 293.494 149.658C293.494 150.974 292.528 151.996 291.282 151.996C289.994 151.996 289 150.988 289 149.672C289 148.314 289.966 147.292 291.226 147.292Z" fill="white"/>
<path d="M695.004 92.1762V99.4982C695.004 100.408 694.696 100.856 694.08 100.856C693.604 100.856 693.296 100.59 693.17 100.072H691.252C691.322 100.87 691.476 101.276 691.868 101.724C692.4 102.34 693.226 102.704 694.122 102.704C695.858 102.704 696.922 101.5 696.922 99.5542V92.1762H695.004ZM706.5 94.7662H704.792V95.8022C704.148 94.9482 703.378 94.5842 702.258 94.5842C699.962 94.5842 698.31 96.3062 698.31 98.6722C698.31 101.01 699.948 102.704 702.216 102.704C703.308 102.704 704.05 102.368 704.792 101.514V102.522H706.5V94.7662ZM702.426 96.2922C703.784 96.2922 704.736 97.2722 704.736 98.6722C704.736 100.058 703.826 100.996 702.482 100.996C701.124 100.996 700.186 100.072 700.186 98.7142C700.186 97.3142 701.124 96.2922 702.426 96.2922ZM713.542 99.9742C713.08 100.688 712.548 100.996 711.778 100.996C710.49 100.996 709.524 99.9882 709.524 98.6302C709.524 97.2582 710.434 96.2922 711.736 96.2922C712.576 96.2922 713.164 96.6282 713.542 97.3562H715.642C715.376 96.6002 715.138 96.2082 714.648 95.7322C713.892 94.9902 712.842 94.5842 711.736 94.5842C709.44 94.5842 707.648 96.3622 707.648 98.6442C707.648 100.898 709.496 102.704 711.792 102.704C713.612 102.704 714.998 101.71 715.642 99.9742H713.542ZM716.762 102.522H718.624V98.8962L721.27 102.522H723.776L720.556 98.5602L723.328 94.7662H721.102L718.624 98.4202V92.1762H716.762V102.522ZM724.555 105.112H726.417V101.794C727.131 102.424 727.845 102.704 728.797 102.704C731.037 102.704 732.675 100.968 732.675 98.6162C732.675 96.2782 731.051 94.5842 728.811 94.5842C727.761 94.5842 726.865 94.9622 726.263 95.6762V94.7662H724.555V105.112ZM728.531 96.2922C729.847 96.2922 730.799 97.3002 730.799 98.6582C730.799 99.9742 729.833 100.996 728.587 100.996C727.299 100.996 726.305 99.9882 726.305 98.6722C726.305 97.3142 727.271 96.2922 728.531 96.2922ZM737.618 94.5842C735.294 94.5842 733.46 96.3902 733.46 98.6582C733.46 100.884 735.308 102.704 737.59 102.704C739.858 102.704 741.706 100.884 741.706 98.6582C741.706 96.4182 739.872 94.5842 737.618 94.5842ZM737.548 96.2922C738.822 96.2922 739.83 97.3282 739.83 98.6582C739.83 99.9462 738.822 100.996 737.576 100.996C736.344 100.996 735.336 99.9462 735.336 98.6442C735.336 97.3562 736.344 96.2922 737.548 96.2922ZM743.061 102.522H744.923V96.4602H746.043V94.7662H744.923V92.1762H743.061V94.7662H742.151V96.4602H743.061V102.522ZM751.083 102.522H752.945V96.4602H753.995V94.9062H752.945C752.959 94.2062 753.197 93.9682 753.911 93.9682H754.107V92.2042C753.883 92.1762 753.771 92.1762 753.645 92.1762C752.861 92.1762 752.217 92.4562 751.741 93.0022C751.335 93.4502 751.181 93.8982 751.083 94.9062H750.411V96.4602H751.083V102.522ZM761.876 94.7662H760.014V98.4202C760.014 99.4142 759.944 99.9042 759.748 100.254C759.482 100.73 758.95 100.996 758.306 100.996C757.83 100.996 757.494 100.842 757.228 100.534C756.948 100.184 756.836 99.6382 756.836 98.5602V94.7662H754.974V98.9242C754.974 100.198 755.114 100.856 755.52 101.486C756.024 102.27 756.878 102.704 757.928 102.704C758.866 102.704 759.44 102.466 760.154 101.78V102.522H761.876V94.7662ZM763.383 102.522H765.245V98.8682C765.245 97.8602 765.315 97.4122 765.539 97.0482C765.819 96.5582 766.309 96.2922 766.925 96.2922C767.401 96.2922 767.765 96.4462 768.017 96.7542C768.297 97.0902 768.409 97.6642 768.409 98.7282V102.522H770.271V98.3642C770.271 97.0202 770.145 96.3762 769.767 95.7742C769.263 95.0042 768.395 94.5842 767.289 94.5842C766.393 94.5842 765.791 94.8362 765.105 95.5082V94.7662H763.383V102.522ZM779.548 92.1762H777.686V95.4522C777.14 94.8502 776.244 94.4862 775.264 94.4862C773.094 94.4862 771.386 96.3062 771.386 98.6302C771.386 100.94 773.08 102.704 775.278 102.704C776.328 102.704 777.084 102.354 777.84 101.514V102.522H779.548V92.1762ZM775.502 96.1942C776.846 96.1942 777.826 97.2162 777.826 98.6162C777.826 99.9462 776.832 100.996 775.572 100.996C774.284 100.996 773.262 99.9322 773.262 98.5742C773.262 97.2302 774.242 96.1942 775.502 96.1942Z" fill="white"/>
<path d="M686.994 375.522H688.912V367.766L691.614 375.522H693.182L695.884 367.766V375.522H697.802V365.176H695.17L692.412 373.016L689.626 365.176H686.994V375.522ZM707.379 367.766H705.671V368.802C705.027 367.948 704.257 367.584 703.137 367.584C700.841 367.584 699.189 369.306 699.189 371.672C699.189 374.01 700.827 375.704 703.095 375.704C704.187 375.704 704.929 375.368 705.671 374.514V375.522H707.379V367.766ZM703.305 369.292C704.663 369.292 705.615 370.272 705.615 371.672C705.615 373.058 704.705 373.996 703.361 373.996C702.003 373.996 701.065 373.072 701.065 371.714C701.065 370.314 702.003 369.292 703.305 369.292ZM708.891 375.522H710.753V371.21C710.753 370.006 711.299 369.404 712.419 369.376V367.584H712.279C711.481 367.584 711.089 367.794 710.599 368.522V367.766H708.891V375.522ZM713.512 375.522H715.374V371.896L718.02 375.522H720.526L717.306 371.56L720.078 367.766H717.852L715.374 371.42V365.176H713.512V375.522ZM728.402 372.47C728.458 372.204 728.472 372.036 728.472 371.756C728.472 369.348 726.778 367.584 724.468 367.584C722.186 367.584 720.38 369.39 720.38 371.672C720.38 373.94 722.214 375.704 724.58 375.704C725.854 375.704 726.848 375.256 727.66 374.304C727.954 373.94 728.15 373.618 728.276 373.226H726.246C725.77 373.786 725.308 373.996 724.538 373.996C723.432 373.996 722.62 373.408 722.396 372.47H728.402ZM722.34 370.832C722.634 369.824 723.39 369.292 724.496 369.292C725.644 369.292 726.4 369.838 726.638 370.832H722.34ZM729.83 375.522H731.692V369.46H732.812V367.766H731.692V365.176H729.83V367.766H728.92V369.46H729.83V375.522ZM733.733 375.522H735.595V367.766H733.733V375.522ZM733.733 366.926H735.595V365.176H733.733V366.926ZM737.11 375.522H738.972V371.868C738.972 370.86 739.042 370.412 739.266 370.048C739.546 369.558 740.036 369.292 740.652 369.292C741.128 369.292 741.492 369.446 741.744 369.754C742.024 370.09 742.136 370.664 742.136 371.728V375.522H743.998V371.364C743.998 370.02 743.872 369.376 743.494 368.774C742.99 368.004 742.122 367.584 741.016 367.584C740.12 367.584 739.518 367.836 738.832 368.508V367.766H737.11V375.522ZM751.469 367.766V368.746C750.881 367.962 750.055 367.584 748.935 367.584C746.737 367.584 745.113 369.292 745.113 371.588C745.113 373.982 746.709 375.704 748.921 375.704C750.013 375.704 750.741 375.354 751.469 374.5C751.399 376.166 750.685 376.978 749.299 376.978C748.431 376.978 747.899 376.754 747.353 376.152H745.239C745.869 377.706 747.325 378.616 749.229 378.616C750.587 378.616 751.665 378.154 752.393 377.272C752.995 376.544 753.247 375.592 753.247 374.052V367.766H751.469ZM749.117 369.292C750.475 369.292 751.385 370.244 751.385 371.644C751.385 373.072 750.517 373.996 749.173 373.996C747.843 373.996 746.989 373.086 746.989 371.672C746.989 370.244 747.843 369.292 749.117 369.292ZM764.214 372.974C763.752 373.688 763.22 373.996 762.45 373.996C761.162 373.996 760.196 372.988 760.196 371.63C760.196 370.258 761.106 369.292 762.408 369.292C763.248 369.292 763.836 369.628 764.214 370.356H766.314C766.048 369.6 765.81 369.208 765.32 368.732C764.564 367.99 763.514 367.584 762.408 367.584C760.112 367.584 758.32 369.362 758.32 371.644C758.32 373.898 760.168 375.704 762.464 375.704C764.284 375.704 765.67 374.71 766.314 372.974H764.214ZM771.228 367.584C768.904 367.584 767.07 369.39 767.07 371.658C767.07 373.884 768.918 375.704 771.2 375.704C773.468 375.704 775.316 373.884 775.316 371.658C775.316 369.418 773.482 367.584 771.228 367.584ZM771.158 369.292C772.432 369.292 773.44 370.328 773.44 371.658C773.44 372.946 772.432 373.996 771.186 373.996C769.954 373.996 768.946 372.946 768.946 371.644C768.946 370.356 769.954 369.292 771.158 369.292ZM775.911 373.058C775.981 373.786 776.107 374.164 776.401 374.584C776.891 375.27 777.787 375.704 778.753 375.704C780.307 375.704 781.525 374.542 781.525 373.058C781.525 371.882 780.937 371.266 779.369 370.79C778.613 370.552 778.613 370.552 778.417 370.468C778.179 370.356 778.053 370.174 778.053 369.95C778.053 369.572 778.361 369.292 778.767 369.292C779.159 369.292 779.411 369.502 779.495 369.908H781.315C781.287 369.278 781.147 368.9 780.811 368.494C780.321 367.92 779.565 367.584 778.767 367.584C777.311 367.584 776.191 368.62 776.191 369.95C776.191 371.084 776.793 371.728 778.347 372.246C779.047 372.484 779.117 372.512 779.313 372.638C779.537 372.778 779.663 372.988 779.663 373.24C779.663 373.674 779.313 373.996 778.823 373.996C778.277 373.996 777.969 373.716 777.787 373.058H775.911ZM782.932 375.522H784.794V369.46H785.914V367.766H784.794V365.176H782.932V367.766H782.022V369.46H782.932V375.522ZM786.288 373.058C786.358 373.786 786.484 374.164 786.778 374.584C787.268 375.27 788.164 375.704 789.13 375.704C790.684 375.704 791.902 374.542 791.902 373.058C791.902 371.882 791.314 371.266 789.746 370.79C788.99 370.552 788.99 370.552 788.794 370.468C788.556 370.356 788.43 370.174 788.43 369.95C788.43 369.572 788.738 369.292 789.144 369.292C789.536 369.292 789.788 369.502 789.872 369.908H791.692C791.664 369.278 791.524 368.9 791.188 368.494C790.698 367.92 789.942 367.584 789.144 367.584C787.688 367.584 786.568 368.62 786.568 369.95C786.568 371.084 787.17 371.728 788.724 372.246C789.424 372.484 789.494 372.512 789.69 372.638C789.914 372.778 790.04 372.988 790.04 373.24C790.04 373.674 789.69 373.996 789.2 373.996C788.654 373.996 788.346 373.716 788.164 373.058H786.288Z" fill="white"/>
<defs>
<linearGradient id="paint0_linear_118_606" x1="542.019" y1="425.803" x2="350.736" y2="151.213" gradientUnits="userSpaceOnUse">
<stop stop-color="#FF1791"/>
<stop offset="1" stop-color="#F77FBD"/>
</linearGradient>
<linearGradient id="paint1_linear_118_606" x1="566.409" y1="466.953" x2="421.698" y2="72.4504" gradientUnits="userSpaceOnUse">
<stop stop-color="#FF72BC" stop-opacity="0.5"/>
<stop offset="1" stop-color="#FF81C3" stop-opacity="0.51"/>
</linearGradient>
<linearGradient id="paint2_linear_118_606" x1="512.543" y1="249.889" x2="660.936" y2="125.483" gradientUnits="userSpaceOnUse">
<stop stop-color="#2C27FF"/>
<stop offset="1" stop-color="#8E58FF"/>
</linearGradient>
<linearGradient id="paint3_linear_118_606" x1="690.77" y1="296.605" x2="525.259" y2="84.1845" gradientUnits="userSpaceOnUse">
<stop stop-color="#FF81BD"/>
<stop offset="1" stop-color="#FF9FCD" stop-opacity="0"/>
</linearGradient>
<linearGradient id="paint4_linear_118_606" x1="639.765" y1="360.343" x2="510.988" y2="250.667" gradientUnits="userSpaceOnUse">
<stop stop-color="#8BFF55"/>
<stop offset="1" stop-color="#449B00" stop-opacity="0"/>
</linearGradient>
<linearGradient id="paint5_linear_118_606" x1="639.765" y1="360.343" x2="510.988" y2="250.667" gradientUnits="userSpaceOnUse">
<stop stop-color="#FF6CBF"/>
<stop offset="1" stop-color="#A7206C" stop-opacity="0.19"/>
</linearGradient>
</defs>
</svg>
